HIERARCHY
ROOT Root
{
  OFFSET 0.0 0.0 0.0
  CHANNELS 6 Xposition Yposition Zposition Zrotation Yrotation Xrotation
  JOINT Hips
  {
    OFFSET 0.0 100.0 0.0
    CHANNELS 6 Xposition Yposition Zposition Zrotation Yrotation Xrotation
    JOINT Spine1
    {
      OFFSET -0.013727 5.003763 -0.053727
      CHANNELS 3 Zrotation Yrotation Xrotation
      JOINT Spine2
      {
        OFFSET -0.0 7.125301 -0.029825
        CHANNELS 3 Zrotation Yrotation Xrotation
        JOINT Chest
        {
          OFFSET -1e-06 7.550063 -0.815971
          CHANNELS 3 Zrotation Yrotation Xrotation
          JOINT Neck1
          {
            OFFSET -0.181677 26.311295 -0.553348
            CHANNELS 3 Zrotation Yrotation Xrotation
            JOINT Neck2
            {
              OFFSET -3e-06 7.709397 2.302585
              CHANNELS 3 Zrotation Yrotation Xrotation
              JOINT Head
              {
                OFFSET -5e-06 6.128916 1.953709
                CHANNELS 3 Zrotation Yrotation Xrotation
                JOINT HeadEnd
                {
                  OFFSET 0.003598 16.065403 -1.835379
                  CHANNELS 3 Zrotation Yrotation Xrotation
                }
                JOINT Jaw
                {
                  OFFSET 0.002637 0.475592 3.094941
                  CHANNELS 3 Zrotation Yrotation Xrotation
                }
                JOINT LeftEye
                {
                  OFFSET 3.206381 5.380205 7.586883
                  CHANNELS 3 Zrotation Yrotation Xrotation
                }
                JOINT RightEye
                {
                  OFFSET -3.22244 5.361869 7.558234
                  CHANNELS 3 Zrotation Yrotation Xrotation
                }
              }
            }
          }
          JOINT LeftShoulder
          {
            OFFSET 1.621652 23.237164 5.113413
            CHANNELS 3 Zrotation Yrotation Xrotation
            JOINT LeftArm
            {
              OFFSET 14.919846 2e-06 -5.502326
              CHANNELS 3 Zrotation Yrotation Xrotation
              JOINT LeftForeArm
              {
                OFFSET 28.739307 0.0 -0.002588
                CHANNELS 3 Zrotation Yrotation Xrotation
                JOINT LeftHand
                {
                  OFFSET 27.093981 -1e-06 0.002609
                  CHANNELS 3 Zrotation Yrotation Xrotation
                  JOINT LeftHandThumb1
                  {
                    OFFSET 2.276482 -1.392045 3.191413
                    CHANNELS 3 Zrotation Yrotation Xrotation
                    JOINT LeftHandThumb2
                    {
                      OFFSET 4.012836 -1.828127 1.641654
                      CHANNELS 3 Zrotation Yrotation Xrotation
                      JOINT LeftHandThumb3
                      {
                        OFFSET 2.798515 0.0 -3e-06
                        CHANNELS 3 Zrotation Yrotation Xrotation
                        JOINT LeftHandThumbEnd
                        {
                          OFFSET 3.180793 -4e-06 4e-06
                          CHANNELS 3 Zrotation Yrotation Xrotation
                        }
                      }
                    }
                  }
                  JOINT LeftHandIndex1
                  {
                    OFFSET 3.247555 -0.531998 2.296169
                    CHANNELS 3 Zrotation Yrotation Xrotation
                    JOINT LeftHandIndex2
                    {
                      OFFSET 6.364578 0.01206 0.1786
                      CHANNELS 3 Zrotation Yrotation Xrotation
                      JOINT LeftHandIndex3
                      {
                        OFFSET 3.662364 0.0 0.0
                        CHANNELS 3 Zrotation Yrotation Xrotation
                        JOINT LeftHandIndex4
                        {
                          OFFSET 2.329242 4e-06 4e-06
                          CHANNELS 3 Zrotation Yrotation Xrotation
                          JOINT LeftHandIndexEnd
                          {
                            OFFSET 2.759615 -0.180537 -0.113024
                            CHANNELS 3 Zrotation Yrotation Xrotation
                          }
                        }
                      }
                    }
                  }
                  JOINT LeftHandMiddle1
                  {
                    OFFSET 3.163495 0.240981 1.000332
                    CHANNELS 3 Zrotation Yrotation Xrotation
                    JOINT LeftHandMiddle2
                    {
                      OFFSET 6.19078 -0.259278 -1.002548
                      CHANNELS 3 Zrotation Yrotation Xrotation
                      JOINT LeftHandMiddle3
                      {
                        OFFSET 4.35652 -4e-06 -1e-06
                        CHANNELS 3 Zrotation Yrotation Xrotation
                        JOINT LeftHandMiddle4
                        {
                          OFFSET 2.996877 -8e-06 0.0
                          CHANNELS 3 Zrotation Yrotation Xrotation
                          JOINT LeftHandMiddleEnd
                          {
                            OFFSET 2.304287 -0.294569 -0.031741
                            CHANNELS 3 Zrotation Yrotation Xrotation
                          }
                        }
                      }
                    }
                  }
                  JOINT LeftHandRing1
                  {
                    OFFSET 2.882643 -0.053652 -0.322543
                    CHANNELS 3 Zrotation Yrotation Xrotation
                    JOINT LeftHandRing2
                    {
                      OFFSET 5.854541 -0.486202 -1.373841
                      CHANNELS 3 Zrotation Yrotation Xrotation
                      JOINT LeftHandRing3
                      {
                        OFFSET 4.350578 0.0 3e-06
                        CHANNELS 3 Zrotation Yrotation Xrotation
                        JOINT LeftHandRing4
                        {
                          OFFSET 2.651321 7e-06 2e-06
                          CHANNELS 3 Zrotation Yrotation Xrotation
                          JOINT LeftHandRingEnd
                          {
                            OFFSET 1.936105 0.077687 -7.1e-05
                            CHANNELS 3 Zrotation Yrotation Xrotation
                          }
                        }
                      }
                    }
                  }
                  JOINT LeftHandPinky1
                  {
                    OFFSET 2.8655 -0.310005 -1.600378
                    CHANNELS 3 Zrotation Yrotation Xrotation
                    JOINT LeftHandPinky2
                    {
                      OFFSET 5.087849 -1.331141 -1.77123
                      CHANNELS 3 Zrotation Yrotation Xrotation
                      JOINT LeftHandPinky3
                      {
                        OFFSET 3.070974 4e-06 0.0
                        CHANNELS 3 Zrotation Yrotation Xrotation
                        JOINT LeftHandPinky4
                        {
                          OFFSET 1.549672 0.0 1e-06
                          CHANNELS 3 Zrotation Yrotation Xrotation
                          JOINT LeftHandPinkyEnd
                          {
                            OFFSET 1.944893 -0.157802 0.057219
                            CHANNELS 3 Zrotation Yrotation Xrotation
                          }
                        }
                      }
                    }
                  }
                }
              }
            }
          }
          JOINT RightShoulder
          {
            OFFSET -1.380118 23.180309 5.214158
            CHANNELS 3 Zrotation Yrotation Xrotation
            JOINT RightArm
            {
              OFFSET -15.037196 1.2e-05 -5.545604
              CHANNELS 3 Zrotation Yrotation Xrotation
              JOINT RightForeArm
              {
                OFFSET -28.736639 2e-06 -0.002597
                CHANNELS 3 Zrotation Yrotation Xrotation
                JOINT RightHand
                {
                  OFFSET -27.133619 -0.0 0.002613
                  CHANNELS 3 Zrotation Yrotation Xrotation
                  JOINT RightHandThumb1
                  {
                    OFFSET -2.274032 -1.383988 3.163127
                    CHANNELS 3 Zrotation Yrotation Xrotation
                    JOINT RightHandThumb2
                    {
                      OFFSET -4.011429 -1.827466 1.640914
                      CHANNELS 3 Zrotation Yrotation Xrotation
                      JOINT RightHandThumb3
                      {
                        OFFSET -2.794935 -4e-06 -3e-06
                        CHANNELS 3 Zrotation Yrotation Xrotation
                        JOINT RightHandThumbEnd
                        {
                          OFFSET -3.183852 4e-06 1e-06
                          CHANNELS 3 Zrotation Yrotation Xrotation
                        }
                      }
                    }
                  }
                  JOINT RightHandIndex1
                  {
                    OFFSET -3.253266 -0.520057 2.282866
                    CHANNELS 3 Zrotation Yrotation Xrotation
                    JOINT RightHandIndex2
                    {
                      OFFSET -6.341917 0.012471 0.178266
                      CHANNELS 3 Zrotation Yrotation Xrotation
                      JOINT RightHandIndex3
                      {
                        OFFSET -3.654871 -8e-06 -0.0
                        CHANNELS 3 Zrotation Yrotation Xrotation
                        JOINT RightHandIndex4
                        {
                          OFFSET -2.327586 0.0 1e-06
                          CHANNELS 3 Zrotation Yrotation Xrotation
                          JOINT RightHandIndexEnd
                          {
                            OFFSET -2.76179 -0.180656 -0.113078
                            CHANNELS 3 Zrotation Yrotation Xrotation
                          }
                        }
                      }
                    }
                  }
                  JOINT RightHandMiddle1
                  {
                    OFFSET -3.168106 0.246593 1.00103
                    CHANNELS 3 Zrotation Yrotation Xrotation
                    JOINT RightHandMiddle2
                    {
                      OFFSET -6.180828 -0.258836 -1.000895
                      CHANNELS 3 Zrotation Yrotation Xrotation
                      JOINT RightHandMiddle3
                      {
                        OFFSET -4.348901 0.0 -0.0
                        CHANNELS 3 Zrotation Yrotation Xrotation
                        JOINT RightHandMiddle4
                        {
                          OFFSET -3.00024 -4e-06 -2e-06
                          CHANNELS 3 Zrotation Yrotation Xrotation
                          JOINT RightHandMiddleEnd
                          {
                            OFFSET -2.30252 -0.29437 -0.031706
                            CHANNELS 3 Zrotation Yrotation Xrotation
                          }
                        }
                      }
                    }
                  }
                  JOINT RightHandRing1
                  {
                    OFFSET -2.88569 -0.067952 -0.308858
                    CHANNELS 3 Zrotation Yrotation Xrotation
                    JOINT RightHandRing2
                    {
                      OFFSET -5.854198 -0.48613 -1.373731
                      CHANNELS 3 Zrotation Yrotation Xrotation
                      JOINT RightHandRing3
                      {
                        OFFSET -4.33881 -4e-06 -0.0
                        CHANNELS 3 Zrotation Yrotation Xrotation
                        JOINT RightHandRing4
                        {
                          OFFSET -2.654903 -4e-06 4e-06
                          CHANNELS 3 Zrotation Yrotation Xrotation
                          JOINT RightHandRingEnd
                          {
                            OFFSET -1.933568 0.077527 -5.2e-05
                            CHANNELS 3 Zrotation Yrotation Xrotation
                          }
                        }
                      }
                    }
                  }
                  JOINT RightHandPinky1
                  {
                    OFFSET -2.866425 -0.342796 -1.584145
                    CHANNELS 3 Zrotation Yrotation Xrotation
                    JOINT RightHandPinky2
                    {
                      OFFSET -5.091371 -1.332055 -1.772385
                      CHANNELS 3 Zrotation Yrotation Xrotation
                      JOINT RightHandPinky3
                      {
                        OFFSET -3.062664 -4e-06 1e-06
                        CHANNELS 3 Zrotation Yrotation Xrotation
                        JOINT RightHandPinky4
                        {
                          OFFSET -1.546529 4e-06 -2e-06
                          CHANNELS 3 Zrotation Yrotation Xrotation
                          JOINT RightHandPinkyEnd
                          {
                            OFFSET -1.945119 -0.157718 0.057211
                            CHANNELS 3 Zrotation Yrotation Xrotation
                          }
                        }
                      }
                    }
                  }
                }
              }
            }
          }
        }
      }
    }
    JOINT LeftLeg
    {
      OFFSET 10.043214 -8.434526 2.595655
      CHANNELS 3 Zrotation Yrotation Xrotation
      JOINT LeftShin
      {
        OFFSET -1e-06 -43.221752 -0.802913
        CHANNELS 3 Zrotation Yrotation Xrotation
        JOINT LeftFoot
        {
          OFFSET 1e-06 -42.155094 -3.481523
          CHANNELS 3 Zrotation Yrotation Xrotation
          JOINT LeftToeBase
          {
            OFFSET 0.0 -5.059472 13.231529
            CHANNELS 3 Zrotation Yrotation Xrotation
            JOINT LeftToeEnd
            {
              OFFSET -0.009607 -1.647619 6.513017
              CHANNELS 3 Zrotation Yrotation Xrotation
            }
          }
        }
      }
    }
    JOINT RightLeg
    {
      OFFSET -10.047278 -8.29526 2.620317
      CHANNELS 3 Zrotation Yrotation Xrotation
      JOINT RightShin
      {
        OFFSET 1e-06 -43.362206 -0.805556
        CHANNELS 3 Zrotation Yrotation Xrotation
        JOINT RightFoot
        {
          OFFSET 2e-06 -42.117393 -3.478398
          CHANNELS 3 Zrotation Yrotation Xrotation
          JOINT RightToeBase
          {
            OFFSET -0.0 -5.079609 13.284196
            CHANNELS 3 Zrotation Yrotation Xrotation
            JOINT RightToeEnd
            {
              OFFSET 0.009532 -1.634378 6.460591
              CHANNELS 3 Zrotation Yrotation Xrotation
            }
          }
        }
      }
    }
  }
}
MOTION
Frames: 4
Frame Time: 0.03333333333333333
-0.753785 0.0 -0.20181 0.0 0.385878 0.0 0.0 99.265549 0.0 -1.189636 -0.025713 -1.238397 1.514394 0.067034 -3.606284 -0.173487 1.260241 -6.021405 -0.091225 -1.180881 10.921211 0.321584 2.462603 4.499121 -1.260889 -2.57345 -3.618518 -1.029027 -2.813676 -11.74787 7.7e-05 -2.3e-05 6e-06 0.024659 -0.04987 0.035226 0.74188 -3.782462 -10.563581 -0.695953 3.677356 -10.540448 -18.066923 -3.410379 15.465061 -52.049805 -7.247056 25.601635 0.410014 -23.645803 -0.078052 3.856158 -1.428218 -3.149097 -5.882105 9.861283 0.70259 -10.93687 -0.360574 7.156205 0.0 8.774823 -1e-06 -16.396761 18.069578 5.781568 -1.844031 2.498505 -2.507277 -10.163597 4.678943 4.621106 -20.976021 -4e-06 2e-06 -21.226286 2.451697 -3.593997 0.0 -6e-06 0.0 -1.362681 2.240796 -0.746323 -21.334911 0.58491 3.008325 -13.821212 -2e-06 4e-06 -23.887165 -0.249079 -0.839485 -60.267944 2.374889 -1.35996 -0.294025 1.679686 0.833256 -14.218207 0.093214 1.300582 -34.212048 -0.287564 0.967171 -20.033211 0.964537 1.212844 -1e-06 1e-06 -0.0 -3.440388 0.788234 0.501657 -15.928185 -3.167309 2.999705 -6.338825 -1e-06 1e-06 -18.123444 3.648183 -4.905666 -3e-06 -1e-06 -3e-06 17.334936 12.698534 17.495577 44.860531 23.958626 12.616091 -178.967285 69.167015 -178.767242 -5.743871 -11.973561 -38.020634 2.243539 -5.255037 -3.180158 14.282888 -0.826594 6.952504 -1e-06 -12.690605 -0.0 15.462186 -16.503263 2.976555 1.665664 -1.955922 -2.878299 4.7278 -4.170587 4.993924 11.020523 2e-06 -1e-06 12.10905 -3.735717 -2.866785 -1e-06 -0.0 0.0 1.291985 -1.928549 -1.498089 14.800127 0.567468 3.865608 14.242569 -1.341737 -6.660658 19.631962 0.143925 -0.648244 49.116348 -0.752454 -5.563014 0.353028 -1.511151 -0.03194 20.222782 3.68431 2.316632 18.78727 2e-06 1e-06 10.751625 -0.479871 1.397907 0.0 -0.0 -0.0 3.273807 0.305947 -0.58011 21.486809 11.830376 2.266135 8.162925 2e-06 1e-06 18.399078 -3.798988 -4.940575 3e-06 2e-06 -1e-06 13.205915 16.822411 -0.648116 0.013433 -0.11528 3.974424 -13.60675 6.247827 0.587216 1.570515 -2.079983 0.462658 0.0 1e-06 2e-06 -9.13781 -28.987812 0.898169 0.004593 0.00587 8.766097 9.898062 -11.335702 -3.794861 -1.428546 0.879902 0.700559 0.0 0.0 -1e-06 
-0.761617 0.0 -0.227719 0.0 0.597761 0.0 0.0 99.300545 0.0 -1.113096 -0.025551 -1.317292 1.462799 0.078535 -3.50452 -0.14597 1.315173 -6.040401 -0.181357 -1.155833 11.102749 0.221972 2.527784 5.167608 -1.239196 -2.654887 -3.625706 -1.189621 -2.834456 -12.170546 7.7e-05 -2.3e-05 6e-06 0.024473 -0.023204 0.035557 0.728062 -3.755789 -10.529836 -0.682646 3.703237 -10.511981 -17.713858 -3.267781 15.675612 -52.467728 -7.452419 25.501884 0.344139 -23.963552 -0.107706 3.849861 -1.396906 -2.979393 -5.882106 9.861284 0.702587 -10.93687 -0.360574 7.156207 0.0 8.774824 -1e-06 -16.428892 18.038321 5.742332 -1.844032 2.498504 -2.507278 -10.163599 4.678945 4.621108 -20.976021 -2e-06 2e-06 -21.226286 2.451697 -3.594001 0.0 -5e-06 0.0 -1.362681 2.240798 -0.746322 -21.334913 0.58491 3.008322 -13.821215 -2e-06 1e-06 -23.887169 -0.249078 -0.839486 -60.296829 2.356203 -1.265922 -0.294025 1.679687 0.833256 -14.218208 0.093216 1.300581 -34.212048 -0.287563 0.967166 -20.033211 0.964535 1.21284 -1e-06 1e-06 1e-06 -3.440389 0.788233 0.501655 -15.928185 -3.167308 2.999706 -6.338826 -1e-06 0.0 -18.123446 3.648181 -4.905672 -3e-06 -1e-06 -3e-06 16.745081 12.510637 17.759476 45.113518 23.999704 12.876668 -179.700424 68.354965 -179.479233 -5.857073 -11.729117 -38.194397 2.243539 -5.255036 -3.180159 14.282889 -0.826593 6.952503 -2e-06 -12.690603 -1e-06 15.45166 -16.527294 2.903231 1.665664 -1.955921 -2.878299 4.727799 -4.170587 4.993924 11.020523 3e-06 -0.0 12.109051 -3.735716 -2.866784 1e-06 0.0 0.0 1.291986 -1.92855 -1.498089 14.800125 0.567469 3.865607 14.242569 -1.341737 -6.660658 19.631968 0.143925 -0.648244 49.110214 -0.74872 -5.54592 0.35303 -1.511151 -0.03194 20.222788 3.684311 2.316631 18.787271 5e-06 0.0 10.751628 -0.479868 1.397907 0.0 -0.0 -0.0 3.273805 0.305946 -0.58011 21.486811 11.830377 2.266134 8.162927 1e-06 -0.0 18.39908 -3.798984 -4.940574 3e-06 1e-06 -1e-06 13.088728 16.549749 -0.255539 -0.012648 -0.129401 3.157626 -13.485249 6.359342 1.009096 1.571964 -2.082943 0.394203 0.0 1e-06 2e-06 -9.256706 -28.928436 1.223135 -0.003831 -0.015549 8.35729 9.87744 -11.480085 -3.642081 -1.43188 0.860032 0.790917 0.0 0.0 -1e-06 
-0.754752 0.0 -0.299084 0.0 0.835418 0.0 0.0 99.323944 0.0 -1.032745 -0.024848 -1.384424 1.422868 0.087585 -3.391268 -0.138841 1.351791 -6.052031 -0.241199 -1.077173 11.316732 0.119608 2.60265 6.012966 -1.217377 -2.703522 -3.667119 -1.36016 -2.877342 -12.583132 7.7e-05 -2.2e-05 6e-06 0.024251 -0.018613 0.032858 0.712329 -3.752792 -10.536029 -0.667464 3.708853 -10.517052 -17.304869 -3.083116 15.934069 -52.917416 -7.712235 25.23177 0.234715 -24.28598 -0.109177 3.870303 -1.389249 -2.955773 -5.882107 9.861286 0.702589 -10.936874 -0.360575 7.156206 1e-06 8.774824 -1e-06 -16.488132 18.060051 5.691455 -1.844032 2.498504 -2.507277 -10.163602 4.678944 4.621111 -20.976027 -4e-06 2e-06 -21.22629 2.451696 -3.594001 0.0 -5e-06 0.0 -1.362682 2.240799 -0.746324 -21.334917 0.58491 3.008323 -13.821215 -3e-06 1e-06 -23.887173 -0.249078 -0.839483 -60.279575 2.367724 -1.294768 -0.294026 1.679687 0.833256 -14.218213 0.093216 1.300581 -34.212063 -0.287564 0.96717 -20.033224 0.964536 1.212844 0.0 -0.0 0.0 -3.44039 0.788234 0.501656 -15.928189 -3.167311 2.999707 -6.338828 -1e-06 1e-06 -18.123451 3.648182 -4.90567 -3e-06 -1e-06 -2e-06 15.995332 12.408583 17.916817 45.275345 24.109509 13.148746 179.568604 67.346771 179.926041 -5.83954 -11.553629 -38.13448 2.243541 -5.25504 -3.18016 14.282895 -0.826595 6.952509 -3e-06 -12.690609 -1e-06 15.404435 -16.49201 2.84528 1.665665 -1.955923 -2.878302 4.727798 -4.170589 4.993927 11.020528 2e-06 -0.0 12.109052 -3.735718 -2.866786 1e-06 -0.0 -0.0 1.291984 -1.92855 -1.49809 14.800132 0.567468 3.865612 14.242573 -1.341738 -6.660661 19.631969 0.143925 -0.648243 49.072914 -0.736279 -5.568724 0.353028 -1.511151 -0.03194 20.222794 3.68431 2.316635 18.787273 4e-06 3e-06 10.751631 -0.47987 1.397909 0.0 -1e-06 -0.0 3.273806 0.305947 -0.58011 21.486818 11.830378 2.26614 8.162928 2e-06 2e-06 18.399084 -3.798988 -4.940574 3e-06 -0.0 -1e-06 12.950377 16.291878 -0.087981 -0.022128 -0.142789 2.698032 -13.348184 6.368859 1.320868 1.573483 -2.076064 0.352395 0.0 2e-06 2e-06 -9.385795 -28.956902 1.402453 -0.007173 -0.037255 8.181104 9.875911 -11.581014 -3.555377 -1.432134 0.859853 0.856275 0.0 1e-06 -1e-06 
-0.741354 0.0 -0.428155 0.0 1.061148 0.0 0.0 99.331757 0.0 -0.950793 -0.023784 -1.444847 1.380669 0.10087 -3.226773 -0.142906 1.404789 -6.063258 -0.273629 -0.964691 11.55356 0.004387 2.688885 7.062998 -1.197441 -2.710169 -3.705208 -1.500781 -2.890748 -13.073866 7.7e-05 -2.3e-05 6e-06 0.023134 -0.02649 0.027819 0.696216 -3.763277 -10.554438 -0.653694 3.703227 -10.532884 -16.861696 -2.869683 16.221136 -53.35191 -8.042879 24.911108 0.125809 -24.593149 -0.091597 3.979828 -1.421667 -3.100921 -5.88211 9.861292 0.702592 -10.936877 -0.360574 7.156206 0.0 8.77483 1e-06 -16.512014 18.05781 5.644774 -1.844034 2.498507 -2.507279 -10.163606 4.678948 4.621109 -20.976038 -1e-06 -1e-06 -21.226303 2.4517 -3.594004 0.0 -6e-06 0.0 -1.362682 2.2408 -0.746327 -21.334927 0.584912 3.008321 -13.821221 -2e-06 -1e-06 -23.887184 -0.249077 -0.839487 -60.224026 2.360733 -1.345598 -0.294026 1.679688 0.833256 -14.218217 0.093216 1.300581 -34.21207 -0.287565 0.967165 -20.033226 0.964536 1.212843 -0.0 1e-06 1e-06 -3.440391 0.788235 0.501656 -15.928194 -3.167309 2.999705 -6.33883 -0.0 -2e-06 -18.123457 3.648186 -4.905675 -4e-06 -0.0 -1e-06 15.078262 12.409681 17.988251 45.342918 24.349123 13.487584 179.264145 66.21624 179.820923 -5.600484 -11.265296 -37.753925 2.243543 -5.25504 -3.18016 14.282901 -0.826597 6.952512 -0.0 -12.690612 0.0 15.326646 -16.437899 2.798785 1.665667 -1.955922 -2.878302 4.727805 -4.17059 4.993929 11.020531 2e-06 1e-06 12.109057 -3.735719 -2.866785 -0.0 0.0 -0.0 1.291985 -1.92855 -1.498091 14.800136 0.567467 3.865615 14.242579 -1.341739 -6.660662 19.631977 0.143923 -0.648243 49.014187 -0.714693 -5.614454 0.353028 -1.511152 -0.031939 20.222801 3.684308 2.316637 18.787283 1e-06 3e-06 10.751634 -0.479871 1.397909 0.0 -0.0 -0.0 3.273808 0.305947 -0.580109 21.486826 11.830379 2.26614 8.16293 0.0 2e-06 18.399094 -3.798992 -4.940576 3e-06 -0.0 -1e-06 12.807693 16.064396 -0.113962 -0.026969 -0.156279 2.557252 -13.268054 6.324895 1.501025 1.572483 -2.062989 0.298663 0.0 -0.0 2e-06 -9.493095 -28.991951 1.368967 -0.01776 -0.058387 8.329595 9.883578 -11.626726 -3.580153 -1.431061 0.855183 0.872302 -0.0 1e-06 -1e-06 
